# xmcd
#
# Track frame offsets:
#	150
#	15059
#	32130
#	48599
#	64309
#	86011
#	102941
#	118952
#	133348
#	150262
#	169142
#
# Disc length: 2481 seconds
#
# Revision: 2
# Processed by: cddbd v1.5.1PL2 Copyright (c) Steve Scherf et al.
# Submitted via: audiograbber 1.83.01
#
DISCID=8d09af0b
DTITLE=Vinni Blue - More Than Anything
DYEAR=2003
DGENRE=Indie
TTITLE0=Halfway Girl
TTITLE1=My Star
TTITLE2=Wasting Time
TTITLE3=A Little Kindness
TTITLE4=Forever
TTITLE5=Those Days
TTITLE6=Happiness
TTITLE7=Saturday
TTITLE8=More Than Anything
TTITLE9=Step Out
TTITLE10=Endless
EXTD=
EXTT0=
EXTT1=
EXTT2=
EXTT3=
EXTT4=
EXTT5=
EXTT6=
EXTT7=
EXTT8=
EXTT9=
EXTT10=
PLAYORDER=
